<svg width="35" height="42" viewBox="0 0 35 42" fill="none" xmlns="http://www.w3.org/2000/svg">
<path d="M30.1002 0H9.1002C6.87238 0 4.73581 0.884998 3.1605 2.4603C1.58519 4.03561 0.700195 6.17218 0.700195 8.4V33.6C0.700195 35.8278 1.58519 37.9644 3.1605 39.5397C4.73581 41.115 6.87238 42 9.1002 42H30.1002C31.2141 42 32.2824 41.5575 33.0701 40.7699C33.8577 39.9822 34.3002 38.9139 34.3002 37.8V4.2C34.3002 3.08609 33.8577 2.0178 33.0701 1.23015C32.2824 0.442499 31.2141 0 30.1002 0ZM4.9002 8.4C4.9002 7.28609 5.3427 6.2178 6.13035 5.43015C6.918 4.6425 7.98629 4.2 9.1002 4.2H30.1002V25.2H9.1002C7.61978 25.2062 6.16858 25.6125 4.9002 26.376V8.4ZM9.1002 37.8C7.98629 37.8 6.918 37.3575 6.13035 36.5699C5.3427 35.7822 4.9002 34.7139 4.9002 33.6C4.9002 32.4861 5.3427 31.4178 6.13035 30.6302C6.918 29.8425 7.98629 29.4 9.1002 29.4H30.1002V37.8H9.1002ZM13.3002 12.6H21.7002C22.2572 12.6 22.7913 12.3788 23.1851 11.9849C23.579 11.5911 23.8002 11.057 23.8002 10.5C23.8002 9.94305 23.579 9.4089 23.1851 9.01508C22.7913 8.62125 22.2572 8.4 21.7002 8.4H13.3002C12.7432 8.4 12.2091 8.62125 11.8153 9.01508C11.4214 9.4089 11.2002 9.94305 11.2002 10.5C11.2002 11.057 11.4214 11.5911 11.8153 11.9849C12.2091 12.3788 12.7432 12.6 13.3002 12.6Z" fill="#18ABC6"/>
</svg>
