<svg width="27" height="28" viewBox="0 0 27 28" fill="none" xmlns="http://www.w3.org/2000/svg">
<path d="M18.228 9.72815C17.7973 9.01881 17.202 8.47415 16.442 8.09415C15.7073 7.71415 14.8333 7.52415 13.82 7.52415C11.9453 7.52415 10.4633 8.13215 9.374 9.34815C8.31 10.5641 7.778 12.1981 7.778 14.2501C7.778 16.5555 8.348 18.3161 9.488 19.5321C10.6533 20.7228 12.338 21.3181 14.542 21.3181C17.1513 21.3181 19.0133 20.1401 20.128 17.7841H12.642V12.4261H26.55V19.6461C25.9673 21.0648 25.106 22.3948 23.966 23.6361C22.8513 24.8775 21.4327 25.9035 19.71 26.7141C17.9873 27.4995 16.024 27.8921 13.82 27.8921C11.1347 27.8921 8.75333 27.3221 6.676 26.1821C4.624 25.0168 3.028 23.4081 1.888 21.3561C0.773333 19.2788 0.216 16.9101 0.216 14.2501C0.216 11.6155 0.773333 9.27215 1.888 7.22015C3.028 5.14281 4.624 3.53415 6.676 2.39415C8.728 1.22881 11.0967 0.646148 13.782 0.646148C17.1513 0.646148 19.938 1.45681 22.142 3.07815C24.346 4.69948 25.714 6.91615 26.246 9.72815H18.228Z" fill="#18ABC6"/>
</svg>
