<svg width="33" height="40" viewBox="0 0 33 40" fill="none" xmlns="http://www.w3.org/2000/svg">
<path d="M30.5002 7C30.5002 4.6954 28.0374 3.2012 22.9788 2.4454C21.506 0.918 19.1154 0 16.5002 0C13.885 0 11.4944 0.918 10.0216 2.4454C4.963 3.2012 2.5002 4.6954 2.5002 7C2.5002 9.1428 4.74099 10.2318 6.60239 10.8052C6.55439 11.2016 6.5002 11.5974 6.5002 12C6.5002 17.5136 10.9866 22 16.5002 22C22.0138 22 26.5002 17.5136 26.5002 12C26.5002 11.5976 26.446 11.202 26.398 10.8056C28.2564 10.2332 30.5002 9.1442 30.5002 7ZM16.5002 18C13.1916 18 10.5002 15.3086 10.5002 12C10.5002 11.873 10.5042 11.748 10.512 11.623C10.6126 11.6366 10.722 11.6414 10.8236 11.6542C11.4438 11.7322 12.0774 11.7948 12.7248 11.8436C12.9272 11.8588 13.125 11.8742 13.329 11.8864C14.1112 11.9338 14.8988 11.9676 15.6858 11.9706C16.2112 12.0214 16.969 12.0116 17.135 11.9804C17.9774 11.9742 18.7982 11.9388 19.6056 11.89C19.8226 11.877 20.033 11.8608 20.2464 11.8448C20.8966 11.7958 21.5284 11.7338 22.142 11.6572C22.254 11.6432 22.378 11.6376 22.4884 11.6228C22.4962 11.748 22.5002 11.873 22.5002 12C22.5002 15.3086 19.8088 18 16.5002 18ZM23.6476 7.379C21.799 7.75 19.4758 7.963 16.926 7.9904C16.7902 8.004 16.6428 8 16.5002 8C16.3606 8 16.2112 8.002 15.8948 7.9804C15.2706 7.9758 14.6512 7.9558 14.0416 7.9248C12.339 7.8382 10.7212 7.6528 9.36119 7.3802C8.74399 7.2532 8.24379 7.1248 7.83999 7.002C8.63979 6.7598 9.77259 6.502 11.3146 6.3048C11.8782 6.2324 12.383 5.9238 12.7062 5.457C13.1916 4.7558 14.5852 4 16.5002 4C18.4152 4 19.8088 4.7558 20.2942 5.457C20.6174 5.9238 21.1224 6.2324 21.6858 6.3046C23.2278 6.5018 24.3616 6.7596 25.1614 7.0018C24.759 7.123 24.261 7.252 23.6476 7.379ZM1.1506 39.3126C1.5304 39.748 2.0812 40 2.6604 40H30.34C30.9192 40 31.4698 39.748 31.8498 39.3124C32.2296 38.8748 32.4016 38.2948 32.3206 37.7206C31.216 29.8984 24.4152 24 16.5002 24C8.5852 24 1.7844 29.8984 0.679795 37.7208C0.598795 38.295 0.770796 38.875 1.1506 39.3126ZM16.5002 28C21.636 28 26.1458 31.3106 27.802 36H5.1984C6.8546 31.3106 11.3644 28 16.5002 28Z" fill="#18ABC6"/>
</svg>
