<svg width="42" height="43" viewBox="0 0 42 43" fill="none" xmlns="http://www.w3.org/2000/svg">
<path d="M21.0001 0.702148C15.2968 0.702148 14.5816 0.726344 12.3417 0.828501C10.1065 0.93047 8.57996 1.28552 7.24416 1.80456C5.86322 2.34123 4.6921 3.05933 3.52467 4.22676C2.35718 5.39419 1.63908 6.56544 1.10247 7.94637C0.583309 9.2821 0.228385 10.8086 0.12629 13.0439C0.0241326 15.2837 0 15.9989 0 21.7022C0 27.4054 0.0241326 28.1205 0.12629 30.3604C0.228385 32.5956 0.583309 34.1222 1.10247 35.4579C1.63914 36.8389 2.35724 38.01 3.52467 39.1775C4.69217 40.345 5.86322 41.0631 7.24416 41.5997C8.57996 42.1188 10.1065 42.4738 12.3417 42.5758C14.5816 42.678 15.2968 42.7021 21.0001 42.7021C26.7032 42.7021 27.4184 42.678 29.6583 42.5758C31.8935 42.4738 33.42 42.1188 34.7558 41.5997C36.1367 41.0631 37.3078 40.345 38.4754 39.1775C39.6428 38.01 40.3609 36.8389 40.8976 35.4579C41.4166 34.1222 41.7717 32.5956 41.8736 30.3604C41.9758 28.1205 42 27.4054 42 21.7022C42 15.9989 41.9758 15.2837 41.8736 13.0439C41.7717 10.8086 41.4166 9.2821 40.8976 7.94637C40.3609 6.56544 39.6428 5.39419 38.4754 4.22676C37.3078 3.05933 36.1367 2.34123 34.7558 1.80456C33.42 1.28552 31.8935 0.93047 29.6583 0.828501C27.4184 0.726344 26.7032 0.702148 21.0001 0.702148ZM21.0001 4.4859C26.6072 4.4859 27.2714 4.50735 29.4858 4.60838C31.5333 4.70172 32.6452 5.04383 33.3852 5.33142C34.3655 5.71242 35.065 6.16743 35.7998 6.90229C36.5347 7.63715 36.9897 8.33674 37.3707 9.31693C37.6583 10.0569 38.0004 11.1689 38.0938 13.2163C38.1948 15.4307 38.2162 16.0949 38.2162 21.7021C38.2162 27.3094 38.1948 27.9736 38.0938 30.1879C38.0004 32.2355 37.6583 33.3474 37.3707 34.0873C36.9897 35.0676 36.5347 35.7671 35.7998 36.5019C35.065 37.2369 34.3654 37.6919 33.3852 38.0729C32.6452 38.3605 31.5333 38.7026 29.4858 38.7959C27.2718 38.8969 26.6076 38.9184 21 38.9184C15.3924 38.9184 14.7283 38.8969 12.5142 38.7959C10.4667 38.7026 9.35476 38.3605 8.61484 38.0729C7.63453 37.6919 6.935 37.2369 6.20021 36.5019C5.46535 35.7671 5.01027 35.0676 4.62927 34.0874C4.34168 33.3474 3.99964 32.2354 3.90623 30.1879C3.8052 27.9736 3.78376 27.3094 3.78376 21.7021C3.78376 16.0949 3.8052 15.4307 3.90623 13.2163C3.99964 11.1688 4.34168 10.0569 4.62927 9.31699C5.01027 8.33668 5.46535 7.63715 6.20014 6.90235C6.935 6.16743 7.6346 5.71242 8.61478 5.33142C9.35476 5.04383 10.4667 4.70172 12.5142 4.60838C14.7286 4.50735 15.3928 4.4859 21 4.4859" fill="white"/>
<path d="M20.9997 28.7026C17.1336 28.7026 13.9996 25.5686 13.9996 21.7026C13.9996 17.8365 17.1336 14.7025 20.9997 14.7025C24.8656 14.7025 27.9996 17.8365 27.9996 21.7026C27.9996 25.5686 24.8656 28.7026 20.9997 28.7026ZM20.9997 10.9188C15.0438 10.9188 10.2158 15.7468 10.2158 21.7026C10.2158 27.6583 15.0438 32.4863 20.9997 32.4863C26.9553 32.4863 31.7834 27.6583 31.7834 21.7026C31.7834 15.7468 26.9553 10.9188 20.9997 10.9188ZM34.7295 10.4927C34.7295 11.8845 33.6012 13.0127 32.2094 13.0127C30.8178 13.0127 29.6895 11.8845 29.6895 10.4927C29.6895 9.10095 30.8178 7.97266 32.2094 7.97266C33.6012 7.97266 34.7295 9.10095 34.7295 10.4927Z" fill="white"/>
</svg>
