<svg width="42" height="43" viewBox="0 0 42 43" fill="none" xmlns="http://www.w3.org/2000/svg">
<path d="M38.891 0.702148H3.10078C1.38633 0.702148 0 2.05566 0 3.7291V39.667C0 41.3404 1.38633 42.7021 3.10078 42.7021H38.891C40.6055 42.7021 42 41.3404 42 39.6752V3.7291C42 2.05566 40.6055 0.702148 38.891 0.702148ZM12.4605 36.4924H6.22617V16.4439H12.4605V36.4924ZM9.34336 13.7123C7.3418 13.7123 5.72578 12.0963 5.72578 10.1029C5.72578 8.10957 7.3418 6.49355 9.34336 6.49355C11.3367 6.49355 12.9527 8.10957 12.9527 10.1029C12.9527 12.0881 11.3367 13.7123 9.34336 13.7123ZM35.7902 36.4924H29.5641V26.7471C29.5641 24.4256 29.523 21.4314 26.3238 21.4314C23.0836 21.4314 22.5914 23.9662 22.5914 26.583V36.4924H16.3734V16.4439H22.3453V19.1838H22.4273C23.2559 17.6088 25.2902 15.9436 28.3172 15.9436C34.6254 15.9436 35.7902 20.0943 35.7902 25.492V36.4924Z" fill="white"/>
</svg>
