<svg width="16" height="21" viewBox="0 0 16 21" fill="none" xmlns="http://www.w3.org/2000/svg">
<path d="M8 10.6865C8.55 10.6865 9.02083 10.4907 9.4125 10.099C9.80417 9.70736 10 9.23652 10 8.68652C10 8.13652 9.80417 7.66569 9.4125 7.27402C9.02083 6.88236 8.55 6.68652 8 6.68652C7.45 6.68652 6.97917 6.88236 6.5875 7.27402C6.19583 7.66569 6 8.13652 6 8.68652C6 9.23652 6.19583 9.70736 6.5875 10.099C6.97917 10.4907 7.45 10.6865 8 10.6865ZM8 18.0365C10.0333 16.1699 11.5417 14.474 12.525 12.949C13.5083 11.424 14 10.0699 14 8.88652C14 7.06986 13.4208 5.58236 12.2625 4.42402C11.1042 3.26569 9.68333 2.68652 8 2.68652C6.31667 2.68652 4.89583 3.26569 3.7375 4.42402C2.57917 5.58236 2 7.06986 2 8.88652C2 10.0699 2.49167 11.424 3.475 12.949C4.45833 14.474 5.96667 16.1699 8 18.0365ZM8 20.6865C5.31667 18.4032 3.3125 16.2824 1.9875 14.324C0.6625 12.3657 0 10.5532 0 8.88652C0 6.38652 0.804167 4.39486 2.4125 2.91152C4.02083 1.42819 5.88333 0.686523 8 0.686523C10.1167 0.686523 11.9792 1.42819 13.5875 2.91152C15.1958 4.39486 16 6.38652 16 8.88652C16 10.5532 15.3375 12.3657 14.0125 14.324C12.6875 16.2824 10.6833 18.4032 8 20.6865Z" fill="black"/>
</svg>
