<svg width="24" height="25" viewBox="0 0 24 25" fill="none" xmlns="http://www.w3.org/2000/svg">
<path d="M12 12.7021C12.55 12.7021 13.0208 12.5063 13.4125 12.1146C13.8042 11.723 14 11.2521 14 10.7021C14 10.1521 13.8042 9.68132 13.4125 9.28965C13.0208 8.89798 12.55 8.70215 12 8.70215C11.45 8.70215 10.9792 8.89798 10.5875 9.28965C10.1958 9.68132 10 10.1521 10 10.7021C10 11.2521 10.1958 11.723 10.5875 12.1146C10.9792 12.5063 11.45 12.7021 12 12.7021ZM12 20.0521C14.0333 18.1855 15.5417 16.4896 16.525 14.9646C17.5083 13.4396 18 12.0855 18 10.9021C18 9.08548 17.4208 7.59798 16.2625 6.43965C15.1042 5.28132 13.6833 4.70215 12 4.70215C10.3167 4.70215 8.89583 5.28132 7.7375 6.43965C6.57917 7.59798 6 9.08548 6 10.9021C6 12.0855 6.49167 13.4396 7.475 14.9646C8.45833 16.4896 9.96667 18.1855 12 20.0521ZM12 22.7021C9.31667 20.4188 7.3125 18.298 5.9875 16.3396C4.6625 14.3813 4 12.5688 4 10.9021C4 8.40215 4.80417 6.41048 6.4125 4.92715C8.02083 3.44382 9.88333 2.70215 12 2.70215C14.1167 2.70215 15.9792 3.44382 17.5875 4.92715C19.1958 6.41048 20 8.40215 20 10.9021C20 12.5688 19.3375 14.3813 18.0125 16.3396C16.6875 18.298 14.6833 20.4188 12 22.7021Z" fill="white"/>
</svg>
