<svg width="237" height="53" viewBox="0 0 237 53" fill="none" xmlns="http://www.w3.org/2000/svg">
<rect y="0.5" width="47.1852" height="47.1852" rx="7" fill="#67C6E3"/>
<rect x="4.81494" y="5.31482" width="47.1852" height="47.1852" rx="7" fill="#18ABC6"/>
<path d="M33.6723 25.1186C33.2417 24.4093 32.6463 23.8646 31.8863 23.4846C31.1517 23.1046 30.2777 22.9146 29.2643 22.9146C27.3897 22.9146 25.9077 23.5226 24.8183 24.7386C23.7543 25.9546 23.2223 27.5886 23.2223 29.6406C23.2223 31.9459 23.7923 33.7066 24.9323 34.9226C26.0977 36.1133 27.7823 36.7086 29.9863 36.7086C32.5957 36.7086 34.4577 35.5306 35.5723 33.1746H28.0863V27.8166H41.9943V35.0366C41.4117 36.4553 40.5503 37.7853 39.4103 39.0266C38.2957 40.2679 36.877 41.2939 35.1543 42.1046C33.4317 42.8899 31.4683 43.2826 29.2643 43.2826C26.579 43.2826 24.1977 42.7126 22.1203 41.5726C20.0683 40.4073 18.4723 38.7986 17.3323 36.7466C16.2177 34.6693 15.6603 32.3006 15.6603 29.6406C15.6603 27.0059 16.2177 24.6626 17.3323 22.6106C18.4723 20.5333 20.0683 18.9246 22.1203 17.7846C24.1723 16.6193 26.541 16.0366 29.2263 16.0366C32.5957 16.0366 35.3823 16.8473 37.5863 18.4686C39.7903 20.0899 41.1583 22.3066 41.6903 25.1186H33.6723Z" fill="white"/>
<path d="M78.65 22.36C78.17 21.48 77.51 20.81 76.67 20.35C75.83 19.89 74.85 19.66 73.73 19.66C72.49 19.66 71.39 19.94 70.43 20.5C69.47 21.06 68.72 21.86 68.18 22.9C67.64 23.94 67.37 25.14 67.37 26.5C67.37 27.9 67.64 29.12 68.18 30.16C68.74 31.2 69.51 32 70.49 32.56C71.47 33.12 72.61 33.4 73.91 33.4C75.51 33.4 76.82 32.98 77.84 32.14C78.86 31.28 79.53 30.09 79.85 28.57H72.65V25.36H83.99V29.02C83.71 30.48 83.11 31.83 82.19 33.07C81.27 34.31 80.08 35.31 78.62 36.07C77.18 36.81 75.56 37.18 73.76 37.18C71.74 37.18 69.91 36.73 68.27 35.83C66.65 34.91 65.37 33.64 64.43 32.02C63.51 30.4 63.05 28.56 63.05 26.5C63.05 24.44 63.51 22.6 64.43 20.98C65.37 19.34 66.65 18.07 68.27 17.17C69.91 16.25 71.73 15.79 73.73 15.79C76.09 15.79 78.14 16.37 79.88 17.53C81.62 18.67 82.82 20.28 83.48 22.36H78.65ZM94.4773 37.27C92.8773 37.27 91.4373 36.92 90.1573 36.22C88.8773 35.5 87.8673 34.49 87.1273 33.19C86.4073 31.89 86.0473 30.39 86.0473 28.69C86.0473 26.99 86.4173 25.49 87.1573 24.19C87.9173 22.89 88.9473 21.89 90.2473 21.19C91.5473 20.47 92.9973 20.11 94.5973 20.11C96.1973 20.11 97.6473 20.47 98.9473 21.19C100.247 21.89 101.267 22.89 102.007 24.19C102.767 25.49 103.147 26.99 103.147 28.69C103.147 30.39 102.757 31.89 101.977 33.19C101.217 34.49 100.177 35.5 98.8573 36.22C97.5573 36.92 96.0973 37.27 94.4773 37.27ZM94.4773 33.61C95.2373 33.61 95.9473 33.43 96.6073 33.07C97.2873 32.69 97.8273 32.13 98.2273 31.39C98.6273 30.65 98.8273 29.75 98.8273 28.69C98.8273 27.11 98.4073 25.9 97.5673 25.06C96.7473 24.2 95.7373 23.77 94.5373 23.77C93.3373 23.77 92.3273 24.2 91.5073 25.06C90.7073 25.9 90.3073 27.11 90.3073 28.69C90.3073 30.27 90.6973 31.49 91.4773 32.35C92.2773 33.19 93.2773 33.61 94.4773 33.61ZM120.478 16.06V19.45H114.898V37H110.698V19.45H105.118V16.06H120.478ZM127.743 22.96C128.283 22.08 128.983 21.39 129.843 20.89C130.723 20.39 131.723 20.14 132.843 20.14V24.55H131.733C130.413 24.55 129.413 24.86 128.733 25.48C128.073 26.1 127.743 27.18 127.743 28.72V37H123.543V20.38H127.743V22.96ZM134.592 28.63C134.592 26.95 134.922 25.46 135.582 24.16C136.262 22.86 137.172 21.86 138.312 21.16C139.472 20.46 140.762 20.11 142.182 20.11C143.422 20.11 144.502 20.36 145.422 20.86C146.362 21.36 147.112 21.99 147.672 22.75V20.38H151.902V37H147.672V34.57C147.132 35.35 146.382 36 145.422 36.52C144.482 37.02 143.392 37.27 142.152 37.27C140.752 37.27 139.472 36.91 138.312 36.19C137.172 35.47 136.262 34.46 135.582 33.16C134.922 31.84 134.592 30.33 134.592 28.63ZM147.672 28.69C147.672 27.67 147.472 26.8 147.072 26.08C146.672 25.34 146.132 24.78 145.452 24.4C144.772 24 144.042 23.8 143.262 23.8C142.482 23.8 141.762 23.99 141.102 24.37C140.442 24.75 139.902 25.31 139.482 26.05C139.082 26.77 138.882 27.63 138.882 28.63C138.882 29.63 139.082 30.51 139.482 31.27C139.902 32.01 140.442 32.58 141.102 32.98C141.782 33.38 142.502 33.58 143.262 33.58C144.042 33.58 144.772 33.39 145.452 33.01C146.132 32.61 146.672 32.05 147.072 31.33C147.472 30.59 147.672 29.71 147.672 28.69ZM162.934 33.13L167.134 20.38H171.604L165.454 37H160.354L154.234 20.38H158.734L162.934 33.13ZM189.413 28.33C189.413 28.93 189.373 29.47 189.293 29.95H177.143C177.243 31.15 177.663 32.09 178.403 32.77C179.143 33.45 180.053 33.79 181.133 33.79C182.693 33.79 183.803 33.12 184.463 31.78H188.993C188.513 33.38 187.593 34.7 186.233 35.74C184.873 36.76 183.203 37.27 181.223 37.27C179.623 37.27 178.183 36.92 176.903 36.22C175.643 35.5 174.653 34.49 173.933 33.19C173.233 31.89 172.883 30.39 172.883 28.69C172.883 26.97 173.233 25.46 173.933 24.16C174.633 22.86 175.613 21.86 176.873 21.16C178.133 20.46 179.583 20.11 181.223 20.11C182.803 20.11 184.213 20.45 185.453 21.13C186.713 21.81 187.683 22.78 188.363 24.04C189.063 25.28 189.413 26.71 189.413 28.33ZM185.063 27.13C185.043 26.05 184.653 25.19 183.893 24.55C183.133 23.89 182.203 23.56 181.103 23.56C180.063 23.56 179.183 23.88 178.463 24.52C177.763 25.14 177.333 26.01 177.173 27.13H185.063ZM196.678 14.8V37H192.478V14.8H196.678Z" fill="black"/>
</svg>
