<svg width="18" height="19" viewBox="0 0 18 19" fill="none" xmlns="http://www.w3.org/2000/svg">
<path d="M16 9.70215C16 7.75215 15.3208 6.09798 13.9625 4.73965C12.6042 3.38132 10.95 2.70215 9 2.70215V0.702148C10.25 0.702148 11.4208 0.939648 12.5125 1.41465C13.6042 1.88965 14.5542 2.53132 15.3625 3.33965C16.1708 4.14798 16.8125 5.09798 17.2875 6.18965C17.7625 7.28132 18 8.45215 18 9.70215H16ZM12 9.70215C12 8.86882 11.7083 8.16048 11.125 7.57715C10.5417 6.99381 9.83333 6.70215 9 6.70215V4.70215C10.3833 4.70215 11.5625 5.18965 12.5375 6.16465C13.5125 7.13965 14 8.31882 14 9.70215H12ZM16.95 18.7021C14.8667 18.7021 12.8083 18.248 10.775 17.3396C8.74167 16.4313 6.89167 15.1438 5.225 13.4771C3.55833 11.8105 2.27083 9.96048 1.3625 7.92715C0.454167 5.89382 0 3.83548 0 1.75215C0 1.45215 0.1 1.20215 0.3 1.00215C0.5 0.802148 0.75 0.702148 1.05 0.702148H5.1C5.33333 0.702148 5.54167 0.781315 5.725 0.939648C5.90833 1.09798 6.01667 1.28548 6.05 1.50215L6.7 5.00215C6.73333 5.26882 6.725 5.49381 6.675 5.67715C6.625 5.86048 6.53333 6.01882 6.4 6.15215L3.975 8.60215C4.30833 9.21881 4.70417 9.81465 5.1625 10.3896C5.62083 10.9646 6.125 11.5188 6.675 12.0521C7.19167 12.5688 7.73333 13.048 8.3 13.4896C8.86667 13.9313 9.46667 14.3355 10.1 14.7021L12.45 12.3521C12.6 12.2021 12.7958 12.0896 13.0375 12.0146C13.2792 11.9396 13.5167 11.9188 13.75 11.9521L17.2 12.6521C17.4333 12.7188 17.625 12.8396 17.775 13.0146C17.925 13.1896 18 13.3855 18 13.6021V17.6521C18 17.9521 17.9 18.2021 17.7 18.4021C17.5 18.6021 17.25 18.7021 16.95 18.7021ZM3.025 6.70215L4.675 5.05215L4.25 2.70215H2.025C2.10833 3.38548 2.225 4.06048 2.375 4.72715C2.525 5.39382 2.74167 6.05215 3.025 6.70215ZM11.975 15.6521C12.625 15.9355 13.2875 16.1605 13.9625 16.3271C14.6375 16.4938 15.3167 16.6021 16 16.6521V14.4521L13.65 13.9771L11.975 15.6521Z" fill="white"/>
</svg>
