<svg width="39" height="40" viewBox="0 0 39 40" fill="none" xmlns="http://www.w3.org/2000/svg">
<path fill-rule="evenodd" clip-rule="evenodd" d="M29.8375 5.01203L25.2441 9.7461C20.5355 8.78333 1.67936 4.14572 1.43277 4.46293C1.15738 4.8191 1.06018 5.06397 0.507601 5.77631C5.947 10.0225 11.489 14.0813 16.9428 18.3016L10.004 25.4528L0.333008 26.0742L8.83409 31.1552L13.6057 39.7533L14.2051 29.8195C16.4748 27.5007 18.7607 25.1968 21.0412 22.8891C25.1811 28.5655 29.1589 34.3366 33.3204 40C34.0116 39.4286 34.2491 39.3303 34.5947 39.0447C34.9061 38.7887 30.2623 18.756 29.4289 14.2928C30.9931 12.6548 32.5428 11.0038 34.0728 9.33057C42.2229 0.428217 38.731 -4.1556 29.8375 5.01203Z" fill="#18ABC6"/>
</svg>
