<svg width="42" height="43" viewBox="0 0 42 43" fill="none" xmlns="http://www.w3.org/2000/svg">
<path d="M30.8043 25.9231C30.3824 25.7134 27.6395 24.455 27.2175 24.2452C26.7956 24.0355 26.3736 24.0355 25.9516 24.455C25.5296 24.8744 24.6857 26.1329 24.2637 26.5523C24.0527 26.9718 23.6307 26.9718 23.2087 26.7621C21.7318 26.1329 20.2549 25.2939 18.989 24.2452C17.934 23.1965 16.8791 21.9381 16.0351 20.6797C15.8241 20.2602 16.0351 19.8407 16.2461 19.631C16.4571 19.4212 16.6681 19.0018 17.0901 18.792C17.3011 18.5823 17.5121 18.1628 17.5121 17.9531C17.723 17.7433 17.723 17.3239 17.5121 17.1141C17.3011 16.9044 16.2461 14.3875 15.8241 13.3389C15.6132 11.8707 15.1912 11.8707 14.7692 11.8707H13.7143C13.2923 11.8707 12.6593 12.2902 12.4483 12.4999C11.1824 13.7583 10.5494 15.2265 10.5494 16.9044C10.7604 18.792 11.3934 20.6797 12.6593 22.3576C14.9802 25.7134 17.934 28.44 21.5208 30.1179C22.5758 30.5374 23.4197 30.9568 24.4747 31.1666C25.5296 31.586 26.5846 31.586 27.8505 31.3763C29.3274 31.1666 30.5934 30.1179 31.4373 28.8595C31.8593 28.0205 31.8593 27.1815 31.6483 26.3426L30.8043 25.9231ZM36.0791 6.83698C27.8505 -1.3428 14.5582 -1.3428 6.32966 6.83698C-0.421977 13.5486 -1.68791 23.8257 2.95384 32.0055L0 42.7022L11.1824 39.7658C14.3472 41.4437 17.723 42.2827 21.0989 42.2827C32.7032 42.2827 41.9867 33.0542 41.9867 21.5186C42.1977 16.0654 39.8769 10.822 36.0791 6.83698ZM30.3824 36.2003C27.6395 37.8782 24.4747 38.9269 21.0989 38.9269C17.934 38.9269 14.9802 38.0879 12.2373 36.6198L11.6044 36.2003L5.06373 37.8782L6.75164 31.586L6.32966 30.9568C1.26593 22.5673 3.79779 12.0804 12.0264 6.83698C20.2549 1.59353 30.8043 4.32013 35.8681 12.2902C40.9318 20.4699 38.6109 31.1666 30.3824 36.2003Z" fill="white"/>
</svg>
