<svg width="93" height="102" viewBox="0 0 93 102" fill="none" xmlns="http://www.w3.org/2000/svg">
<path d="M90 73.4019V28.5977C90 27.9529 89.8289 27.3198 89.5041 26.7632C89.1794 26.2067 88.7128 25.7468 88.1522 25.4307L48.2772 2.94737C47.7346 2.64143 47.1225 2.48071 46.5 2.48071C45.8775 2.48071 45.2654 2.64143 44.7228 2.94737L4.8478 25.4307C4.2872 25.7468 3.82059 26.2067 3.49587 26.7632C3.17114 27.3198 3 27.9529 3 28.5977V73.4019C3 74.0466 3.17114 74.6798 3.49587 75.2363C3.82059 75.7929 4.2872 76.2528 4.8478 76.5689L44.7228 99.0522C45.2654 99.3582 45.8775 99.5189 46.5 99.5189C47.1225 99.5189 47.7346 99.3582 48.2772 99.0522L88.1522 76.5689C88.7128 76.2528 89.1794 75.7929 89.5041 75.2363C89.8289 74.6798 90 74.0466 90 73.4019Z" stroke="black" stroke-width="4.5" stroke-linecap="round" stroke-linejoin="round"/>
<path d="M68.7121 62.0141V38.6481L24.749 14.603" stroke="black" stroke-width="4.5" stroke-linecap="round" stroke-linejoin="round"/>
<path d="M89.5001 27.0169L46.9299 51L3.50195 27.0125" stroke="black" stroke-width="4.5" stroke-linecap="round" stroke-linejoin="round"/>
<path d="M46.9294 51.0002L46.5039 99" stroke="black" stroke-width="4.5" stroke-linecap="round" stroke-linejoin="round"/>
</svg>
