<svg width="113" height="84" viewBox="0 0 113 84" fill="none" xmlns="http://www.w3.org/2000/svg">
<path d="M56.4999 5.6001C49.4852 5.6001 42.6281 7.68018 36.7957 11.5773C30.9632 15.4744 26.4173 21.0136 23.733 27.4943C21.0486 33.9749 20.3462 41.1061 21.7147 47.986C23.0832 54.8658 26.4611 61.1854 31.4212 66.1455C36.3813 71.1056 42.7008 74.4835 49.5807 75.852C56.4605 77.2204 63.5917 76.5181 70.0724 73.8337C76.5531 71.1493 82.0922 66.6035 85.9893 60.771C89.8865 54.9385 91.9666 48.0814 91.9666 41.0668C91.9562 31.6636 88.2162 22.6485 81.5671 15.9995C74.9181 9.35046 65.903 5.61047 56.4999 5.6001ZM56.4999 72.8001C50.2236 72.8001 44.0883 70.939 38.8698 67.4521C33.6513 63.9652 29.5839 59.0091 27.1821 53.2106C24.7803 47.4121 24.1519 41.0316 25.3763 34.8759C26.6007 28.7202 29.623 23.0659 34.061 18.6279C38.499 14.1899 44.1534 11.1676 50.309 9.94318C56.4647 8.71874 62.8452 9.34717 68.6437 11.749C74.4422 14.1508 79.3983 18.2181 82.8852 23.4367C86.3721 28.6552 88.2332 34.7905 88.2332 41.0668C88.2238 49.4801 84.8775 57.5461 78.9284 63.4953C72.9793 69.4444 64.9132 72.7907 56.4999 72.8001Z" fill="black"/>
<path d="M21.0333 20.5333V1.86667H17.3V18.6667H15.4333V1.86667H11.7V18.6667H9.83333V1.86667H6.1V18.6667H4.23333V1.86667H0.5V29.8667C0.501413 31.0245 0.860969 32.1536 1.52936 33.099C2.19775 34.0444 3.14225 34.76 4.23333 35.1475V78.4C4.23333 79.8852 4.82333 81.3096 5.87354 82.3598C6.92374 83.41 8.34812 84 9.83333 84H11.7C13.1852 84 14.6096 83.41 15.6598 82.3598C16.71 81.3096 17.3 79.8852 17.3 78.4V35.1475C18.3911 34.76 19.3356 34.0444 20.004 33.099C20.6724 32.1536 21.0319 31.0245 21.0333 29.8667V20.5333ZM17.3 29.8667C17.3 30.3617 17.1033 30.8365 16.7533 31.1866C16.4032 31.5367 15.9284 31.7333 15.4333 31.7333C14.9383 31.7333 14.4635 31.93 14.1134 32.2801C13.7633 32.6301 13.5667 33.1049 13.5667 33.6V78.4C13.5667 78.8951 13.37 79.3699 13.0199 79.7199C12.6699 80.07 12.1951 80.2667 11.7 80.2667H9.83333C9.33826 80.2667 8.86347 80.07 8.5134 79.7199C8.16333 79.3699 7.96667 78.8951 7.96667 78.4V33.6C7.96667 33.1049 7.77 32.6301 7.41993 32.2801C7.06987 31.93 6.59507 31.7333 6.1 31.7333C5.60493 31.7333 5.13014 31.5367 4.78007 31.1866C4.43 30.8365 4.23333 30.3617 4.23333 29.8667V22.4H17.3V29.8667ZM110.633 0C106.179 0.00494079 101.909 1.77652 98.7594 4.92606C95.6099 8.0756 93.8383 12.3459 93.8333 16.8V41.0667C93.8333 42.5519 94.4233 43.9763 95.4735 45.0265C96.5238 46.0767 97.9481 46.6667 99.4333 46.6667V82.1333C99.4333 82.6284 99.63 83.1032 99.9801 83.4533C100.33 83.8033 100.805 84 101.3 84H110.633C111.128 84 111.603 83.8033 111.953 83.4533C112.303 83.1032 112.5 82.6284 112.5 82.1333V1.86667C112.5 1.3716 112.303 0.896802 111.953 0.546734C111.603 0.196666 111.128 0 110.633 0ZM108.767 80.2667H103.167V44.8C103.167 44.3049 102.97 43.8301 102.62 43.4801C102.27 43.13 101.795 42.9333 101.3 42.9333H99.4333C98.9383 42.9333 98.4635 42.7367 98.1134 42.3866C97.7634 42.0365 97.5667 41.5617 97.5667 41.0667V16.8C97.5706 13.6588 98.7042 10.6239 100.76 8.24926C102.817 5.87465 105.658 4.31883 108.767 3.86587V80.2667Z" fill="black"/>
<path d="M103.167 11.2H99.4336V39.2H103.167V11.2Z" fill="black"/>
<path d="M56.4997 22.3999C52.8078 22.3999 49.1988 23.4947 46.129 25.5458C43.0593 27.5969 40.6668 30.5123 39.2539 33.9231C37.8411 37.334 37.4714 41.0873 38.1917 44.7083C38.9119 48.3292 40.6898 51.6553 43.3004 54.2659C45.9109 56.8765 49.237 58.6543 52.858 59.3746C56.479 60.0948 60.2322 59.7252 63.6431 58.3123C67.054 56.8995 69.9693 54.5069 72.0205 51.4372C74.0716 48.3675 75.1664 44.7585 75.1664 41.0666C75.1609 36.1175 73.1925 31.3727 69.693 27.8732C66.1935 24.3737 61.4487 22.4053 56.4997 22.3999ZM56.4997 55.9999C53.5462 55.9999 50.6589 55.1241 48.2032 53.4832C45.7474 51.8423 43.8334 49.51 42.7031 46.7813C41.5728 44.0526 41.2771 41.05 41.8533 38.1532C42.4295 35.2564 43.8518 32.5956 45.9402 30.5071C48.0287 28.4186 50.6896 26.9964 53.5863 26.4202C56.4831 25.844 59.4857 26.1397 62.2144 27.27C64.9431 28.4002 67.2754 30.3143 68.9163 32.7701C70.5572 35.2258 71.433 38.113 71.433 41.0666C71.4286 45.0258 69.8538 48.8215 67.0542 51.6211C64.2547 54.4207 60.4589 55.9955 56.4997 55.9999Z" fill="black"/>
</svg>
