<svg width="85" height="85" viewBox="0 0 85 85" fill="none" xmlns="http://www.w3.org/2000/svg">
<path d="M72.25 0.539307C69.0282 0.53904 65.936 1.80802 63.6432 4.07138C61.3503 6.33475 60.0414 9.41027 60 12.6318C60 24.7068 72.25 30.2893 72.25 30.2893C72.25 30.2893 84.5001 24.7068 84.5001 12.6318C84.4586 9.41027 83.1498 6.33475 80.8569 4.07138C78.5641 1.80802 75.4718 0.53904 72.25 0.539307ZM72.25 17.8293C71.2372 17.8086 70.253 17.4894 69.4208 16.9116C68.5886 16.3339 67.9455 15.5233 67.5722 14.5815C67.1988 13.6398 67.1118 12.6087 67.322 11.6177C67.5322 10.6267 68.0303 9.71982 68.7539 9.01074C69.4774 8.30167 70.3942 7.82198 71.3893 7.63182C72.3843 7.44166 73.4134 7.5495 74.3474 7.94181C75.2815 8.33411 76.0789 8.99343 76.6397 9.8371C77.2006 10.6808 77.4998 11.6712 77.5001 12.6843C77.4726 14.0584 76.9073 15.3669 75.9257 16.3289C74.9441 17.2909 73.6244 17.8296 72.25 17.8293Z" fill="black"/>
<path d="M0.5 84.5393L4.19251 72.2893L0.5 60.0393L23.2501 72.2893L0.5 84.5393Z" fill="black"/>
<path d="M69.6262 74.0393H28.5011C28.0369 74.0393 27.5918 73.8549 27.2636 73.5267C26.9354 73.1985 26.751 72.7534 26.751 72.2893C26.751 71.8251 26.9354 71.38 27.2636 71.0518C27.5918 70.7236 28.0369 70.5393 28.5011 70.5393H69.6262C71.7148 70.5393 73.7178 69.7096 75.1947 68.2327C76.6715 66.7559 77.5012 64.7528 77.5012 62.6643C77.5012 60.5757 76.6715 58.5727 75.1947 57.0958C73.7178 55.619 71.7148 54.7893 69.6262 54.7893H15.376C12.3592 54.7893 9.46588 53.5908 7.33265 51.4576C5.19941 49.3244 4.00098 46.4311 4.00098 43.4143C4.00098 40.3975 5.19941 37.5042 7.33265 35.371C9.46588 33.2377 12.3592 32.0393 15.376 32.0393H72.2512C72.7153 32.0393 73.1604 32.2237 73.4886 32.5519C73.8168 32.8801 74.0012 33.3252 74.0012 33.7893C74.0012 34.2534 73.8168 34.6986 73.4886 35.0267C73.1604 35.3549 72.7153 35.5393 72.2512 35.5393H15.376C13.2874 35.5393 11.2844 36.369 9.80753 37.8458C8.33068 39.3227 7.50099 41.3257 7.50099 43.4143C7.50099 45.5029 8.33068 47.5059 9.80753 48.9828C11.2844 50.4596 13.2874 51.2893 15.376 51.2893H69.6262C72.643 51.2893 75.5363 52.4877 77.6695 54.6209C79.8028 56.7542 81.0012 59.6474 81.0012 62.6643C81.0012 65.6811 79.8028 68.5744 77.6695 70.7076C75.5363 72.8408 72.643 74.0393 69.6262 74.0393Z" fill="black"/>
</svg>
