<svg width="14" height="18" viewBox="0 0 14 18" fill="none" xmlns="http://www.w3.org/2000/svg">
<path d="M6.99967 8.95589C7.45801 8.95589 7.85037 8.7927 8.17676 8.46631C8.50315 8.13992 8.66634 7.74756 8.66634 7.28922C8.66634 6.83089 8.50315 6.43853 8.17676 6.11214C7.85037 5.78575 7.45801 5.62256 6.99967 5.62256C6.54134 5.62256 6.14898 5.78575 5.82259 6.11214C5.4962 6.43853 5.33301 6.83089 5.33301 7.28922C5.33301 7.74756 5.4962 8.13992 5.82259 8.46631C6.14898 8.7927 6.54134 8.95589 6.99967 8.95589ZM6.99967 15.0809C8.69412 13.5253 9.95106 12.1121 10.7705 10.8413C11.59 9.57047 11.9997 8.442 11.9997 7.45589C11.9997 5.942 11.517 4.70242 10.5518 3.73714C9.58648 2.77186 8.40245 2.28923 6.99967 2.28923C5.5969 2.28923 4.41287 2.77186 3.44759 3.73714C2.48231 4.70242 1.99967 5.942 1.99967 7.45589C1.99967 8.442 2.4094 9.57047 3.22884 10.8413C4.04829 12.1121 5.30523 13.5253 6.99967 15.0809ZM6.99967 17.2892C4.76356 15.3864 3.09342 13.6191 1.98926 11.9871C0.885091 10.3552 0.333008 8.84478 0.333008 7.45589C0.333008 5.37256 1.00315 3.71284 2.34342 2.47673C3.6837 1.24061 5.23579 0.622559 6.99967 0.622559C8.76356 0.622559 10.3156 1.24061 11.6559 2.47673C12.9962 3.71284 13.6663 5.37256 13.6663 7.45589C13.6663 8.84478 13.1143 10.3552 12.0101 11.9871C10.9059 13.6191 9.23579 15.3864 6.99967 17.2892Z" fill="black"/>
</svg>
